HIERARCHY
ROOT Hips
{
	OFFSET -0.001795 -0.223333 0.028219
	CHANNELS 6 Xposition Yposition Zposition Zrotation Yrotation Xrotation 
	JOINT LeftUpLeg
	{
		OFFSET 0.069520 -0.091406 -0.006815
		CHANNELS 3 Zrotation Yrotation Xrotation
		JOINT LeftLeg
		{
			OFFSET 0.034277 -0.375199 -0.004496
			CHANNELS 3 Zrotation Yrotation Xrotation
			JOINT LeftFoot
			{
				OFFSET -0.013596 -0.397961 -0.043693
				CHANNELS 3 Zrotation Yrotation Xrotation
				JOINT LeftToe
				{
					OFFSET 0.026358 -0.055791 0.119288
					CHANNELS 3 Zrotation Yrotation Xrotation
					End Site
					{
						OFFSET 0.000000 0.000000 0.000000
					}
				}
			}
		}
	}
	JOINT RightUpLeg
	{
		OFFSET -0.067670 -0.090522 -0.004320
		CHANNELS 3 Zrotation Yrotation Xrotation
		JOINT RightLeg
		{
			OFFSET -0.038290 -0.382569 -0.008850
			CHANNELS 3 Zrotation Yrotation Xrotation
			JOINT RightFoot
			{
				OFFSET 0.015774 -0.398415 -0.042312
				CHANNELS 3 Zrotation Yrotation Xrotation
				JOINT RightToe
				{
					OFFSET -0.025372 -0.048144 0.123348
					CHANNELS 3 Zrotation Yrotation Xrotation
					End Site
					{
						OFFSET 0.000000 0.000000 0.000000
					}
				}
			}
		}
	}
	JOINT Spine
	{
		OFFSET -0.002533 0.108963 -0.026696
		CHANNELS 3 Zrotation Yrotation Xrotation
		JOINT Spine1
		{
			OFFSET 0.005487 0.135180 0.001092
			CHANNELS 3 Zrotation Yrotation Xrotation
			JOINT Spine2
			{
				OFFSET 0.001457 0.052922 0.025425
				CHANNELS 3 Zrotation Yrotation Xrotation
				JOINT Neck
				{
					OFFSET -0.002778 0.213870 -0.042857
					CHANNELS 3 Zrotation Yrotation Xrotation
					JOINT Head
					{
						OFFSET 0.005152 0.064970 0.051349
						CHANNELS 3 Zrotation Yrotation Xrotation
						End Site
						{
							OFFSET 0.000000 0.000000 0.000000
						}
					}
				}
				JOINT LeftShoulder
				{
					OFFSET 0.078845 0.121749 -0.034090
					CHANNELS 3 Zrotation Yrotation Xrotation
					JOINT LeftArm
					{
						OFFSET 0.090977 0.030469 -0.008868
						CHANNELS 3 Zrotation Yrotation Xrotation
						JOINT LeftForeArm
						{
							OFFSET 0.259612 -0.012772 -0.027456
							CHANNELS 3 Zrotation Yrotation Xrotation
							JOINT LeftHand
							{
								OFFSET 0.249234 0.008986 -0.001171
								CHANNELS 3 Zrotation Yrotation Xrotation
								End Site
								{
									OFFSET 0.000000 0.000000 0.000000
								}
							}
						}
					}
				}
				JOINT RightShoulder
				{
					OFFSET -0.081759 0.118833 -0.038615
					CHANNELS 3 Zrotation Yrotation Xrotation
					JOINT RightArm
					{
						OFFSET -0.096012 0.032551 -0.009143
						CHANNELS 3 Zrotation Yrotation Xrotation
						JOINT RightForeArm
						{
							OFFSET -0.253742 -0.013329 -0.021401
							CHANNELS 3 Zrotation Yrotation Xrotation
							JOINT RightHand
							{
								OFFSET -0.255298 0.007772 -0.005559
								CHANNELS 3 Zrotation Yrotation Xrotation
								End Site
								{
									OFFSET 0.000000 0.000000 0.000000
								}
							}
						}
					}
				}
			}
		}
	}
}
MOTION
Frames: 15
Frame Time: 0.050000
0.000000 1.009685 0.000000 1.387220 -3.590099 -0.783068 1.060072 -0.701956 -8.590947 -1.079984 0.579555 -15.511099 29.280368 24.489725 109.678005 0.000000 0.000000 0.000000 -2.924690 0.617007 -7.153627 0.256684 -0.452730 -13.124666 -48.939948 -23.228864 122.406595 0.000000 0.000000 0.000000 1.614575 -0.444130 8.330146 1.143809 1.606596 -50.399887 5.637846 7.247084 56.176928 -5.600831 2.590904 -86.341538 0.000000 0.000000 0.000000 19.760784 10.484122 -2.533966 -17.523505 37.259144 -8.060935 62.092596 14.971607 5.960081 0.000000 0.000000 0.000000 12.026548 2.751210 2.409653 47.070970 34.960431 3.186993 34.669140 -15.694365 -4.224912 0.000000 0.000000 0.000000 
0.002186 1.010825 -0.002696 1.622925 -2.969032 0.458770 2.090845 -0.688079 -9.327887 -3.029750 0.540352 -16.095372 32.844863 24.676726 110.760827 0.000000 0.000000 0.000000 -3.796018 0.717571 -8.909112 0.178998 -0.434189 -12.092889 -44.462661 -23.075001 122.126739 0.000000 0.000000 0.000000 -0.012799 -0.266399 6.874098 2.790958 1.709313 -52.844151 3.329419 4.621888 57.903887 -0.595678 2.846038 -90.268159 0.000000 0.000000 0.000000 21.634720 9.483437 -3.101493 -11.341778 44.456920 -5.282929 67.851770 10.036655 3.948158 0.000000 0.000000 0.000000 9.040293 1.501923 1.241436 48.828436 37.741380 4.726884 35.790469 -18.908613 -5.608861 0.000000 0.000000 0.000000 
0.004898 1.010843 -0.005776 1.376294 -6.266822 -0.300222 1.670899 -0.577568 -7.651530 -1.931899 0.706018 -17.683724 41.728944 25.505645 117.569256 0.000000 0.000000 0.000000 -3.262935 0.732821 -8.516221 1.034691 -0.381664 -12.502030 -47.305814 -23.016120 119.507437 0.000000 0.000000 0.000000 1.856183 -0.316868 5.548027 2.418635 1.885950 -50.141217 3.048296 6.476447 57.889038 -4.200750 2.868214 -90.631348 0.000000 0.000000 0.000000 21.630079 7.346842 -2.839507 -1.538157 46.484059 0.051562 63.724132 9.043633 2.364799 0.000000 0.000000 0.000000 11.276743 1.866256 1.546110 46.681688 40.047246 4.813926 33.238727 -17.808017 -5.015418 0.000000 0.000000 0.000000 
0.007957 1.012288 -0.008983 1.262570 -6.284432 -1.259323 1.340132 -0.571353 -7.305322 -2.155480 0.680305 -17.144487 46.216509 25.608030 118.710720 0.000000 0.000000 0.000000 -3.164164 0.750337 -8.774520 0.659784 -0.360725 -11.035213 -46.227159 -22.540321 120.188379 0.000000 0.000000 0.000000 2.195655 -0.329374 5.574169 1.641189 1.702788 -47.872835 2.202103 3.601999 56.893118 -1.766503 3.455507 -89.914707 0.000000 0.000000 0.000000 22.563763 6.003352 -3.222891 5.828725 50.424644 4.926562 62.350595 3.305445 -0.449007 0.000000 0.000000 0.000000 11.365446 2.935385 1.597364 45.689910 42.923456 5.682124 33.968138 -19.365967 -5.953304 0.000000 0.000000 0.000000 
0.011501 1.010398 -0.012325 1.276567 -6.615609 -2.025538 1.018422 -0.548357 -6.761952 -1.765969 0.641705 -15.687415 46.885141 25.779075 118.729571 0.000000 0.000000 0.000000 -3.745225 0.712828 -8.630425 0.386780 -0.332955 -9.885013 -41.328585 -21.743732 119.963045 0.000000 0.000000 0.000000 1.751590 -0.324175 6.038923 2.009145 1.588058 -46.484788 2.036617 2.419612 56.354356 -3.356956 3.718068 -90.838407 0.000000 0.000000 0.000000 22.769751 6.033349 -3.581624 11.639403 49.560930 8.615714 65.085057 2.460589 -1.160317 0.000000 0.000000 0.000000 11.274688 2.128511 1.023098 45.876885 44.119346 6.086902 31.391856 -20.012429 -5.881961 0.000000 0.000000 0.000000 
0.015006 1.008923 -0.015579 1.207624 -6.740193 -2.031917 0.682708 -0.581230 -6.903418 -1.429581 0.634449 -15.344553 46.778972 26.023311 117.912981 0.000000 0.000000 0.000000 -4.109491 0.682341 -8.383853 -0.153591 -0.337164 -10.208268 -36.425063 -21.053892 119.727690 0.000000 0.000000 0.000000 1.570117 -0.332732 6.438614 2.145458 1.616533 -46.759452 1.575393 0.867421 56.732449 -2.810179 4.001163 -90.507444 0.000000 0.000000 0.000000 24.138536 6.216098 -4.146566 14.927511 49.199673 10.978611 68.528801 2.420801 -1.041688 0.000000 0.000000 0.000000 10.219495 1.916892 0.702040 48.212722 45.426030 7.195129 29.602327 -21.304704 -5.996622 0.000000 0.000000 0.000000 
0.018138 1.008136 -0.018714 1.072471 -6.747562 -2.183783 0.354413 -0.654940 -7.538949 -0.928956 0.578657 -13.996758 46.361942 26.165657 117.193593 0.000000 0.000000 0.000000 -4.246943 0.671464 -8.320229 -0.538198 -0.319542 -9.675984 -32.700655 -20.850748 118.466547 0.000000 0.000000 0.000000 1.376699 -0.342017 6.920233 2.556067 1.507073 -45.723398 1.352880 0.481638 55.766354 -2.190088 4.062933 -90.225741 0.000000 0.000000 0.000000 25.024776 6.611136 -4.299268 17.883147 47.767246 12.668042 69.655952 2.880388 -0.870579 0.000000 0.000000 0.000000 11.585679 1.552194 0.418488 49.126471 45.812552 7.738932 26.859158 -22.778255 -5.876095 0.000000 0.000000 0.000000 
0.020488 1.007422 -0.021275 0.965449 -6.898026 -2.197470 -0.236159 -0.709693 -7.686054 -0.304209 0.575456 -13.911019 48.086747 26.469965 116.859484 0.000000 0.000000 0.000000 -4.537403 0.654379 -8.196375 -0.740147 -0.314329 -9.604586 -28.468498 -20.374699 117.475741 0.000000 0.000000 0.000000 0.984571 -0.330324 7.244778 3.055150 1.495446 -45.709443 1.060486 0.022270 55.725582 0.670369 4.044243 -89.763601 0.000000 0.000000 0.000000 26.127893 6.128217 -4.461960 19.888372 47.307210 13.921146 69.861952 2.816055 -0.792152 0.000000 0.000000 0.000000 11.851256 1.843228 0.444562 50.142654 45.825964 8.050475 26.243789 -24.198877 -6.107523 0.000000 0.000000 0.000000 
0.021601 1.006791 -0.022926 0.791080 -6.912436 -1.949188 -0.160537 -0.736617 -8.068617 -0.245408 0.564620 -13.700120 48.123874 26.566486 116.487413 0.000000 0.000000 0.000000 -4.428596 0.669451 -8.327657 -1.045788 -0.308408 -9.511055 -26.220519 -20.235773 116.482306 0.000000 0.000000 0.000000 0.507867 -0.312426 7.594684 3.591226 1.512449 -46.139444 0.961489 -0.365043 56.183319 0.984544 4.171144 -90.814054 0.000000 0.000000 0.000000 26.953282 6.441323 -4.673896 20.436043 46.303314 14.133413 66.704545 3.749382 0.019170 0.000000 0.000000 0.000000 11.939278 2.040206 0.479889 50.652844 46.081814 8.251218 26.997697 -26.925571 -6.923564 0.000000 0.000000 0.000000 
0.021682 1.006686 -0.023815 0.716192 -7.153443 -1.911038 -0.151896 -0.725173 -7.949809 -0.230377 0.570324 -13.751316 48.357530 26.834890 115.842874 0.000000 0.000000 0.000000 -4.406176 0.678132 -8.399606 -0.964463 -0.306087 -9.462152 -25.616119 -20.133203 116.052491 0.000000 0.000000 0.000000 0.129697 -0.298154 8.022279 3.883941 1.556296 -46.466149 1.489777 -0.600676 56.410467 1.948597 4.243822 -91.422267 0.000000 0.000000 0.000000 28.017184 6.109774 -4.766087 20.565490 45.809865 14.178094 63.447059 3.624782 0.235328 0.000000 0.000000 0.000000 12.164254 1.647533 0.242769 51.423796 46.121008 8.489421 28.070279 -29.246654 -7.755609 0.000000 0.000000 0.000000 
0.021276 1.006415 -0.024481 0.562256 -7.511503 -1.914358 0.003191 -0.702726 -7.833794 0.064476 0.581918 -13.903411 48.079551 26.836362 116.176724 0.000000 0.000000 0.000000 -4.101305 0.696744 -8.465224 -1.232003 -0.308405 -9.673455 -25.046574 -19.775748 116.582783 0.000000 0.000000 0.000000 -0.326899 -0.272832 8.441529 4.411329 1.665555 -47.284175 1.610495 -1.038816 56.943613 1.584101 4.453226 -92.347361 0.000000 0.000000 0.000000 29.167043 6.157618 -5.031458 20.419582 44.899178 14.060761 58.072003 3.147929 0.435177 0.000000 0.000000 0.000000 11.192409 1.963545 0.354679 51.768979 45.735597 8.266430 30.844342 -31.725738 -9.201795 0.000000 0.000000 0.000000 
0.020907 1.006563 -0.025210 0.278093 -8.662378 -1.657309 0.755184 -0.655006 -8.017862 0.008848 0.596584 -13.900256 47.179202 26.866983 117.186861 0.000000 0.000000 0.000000 -3.490941 0.750221 -8.732576 -1.268240 -0.303065 -9.753163 -25.377669 -19.640911 115.351185 0.000000 0.000000 0.000000 -0.609228 -0.240110 8.287832 5.251711 1.797645 -47.617309 1.788683 -0.927856 57.277229 2.021283 4.578023 -92.277175 0.000000 0.000000 0.000000 30.406263 6.021921 -5.281662 21.960306 44.664321 15.059189 50.080638 0.767288 -0.257164 0.000000 0.000000 0.000000 10.699141 2.309851 0.437382 51.957299 45.408871 8.073811 32.919652 -33.433132 -10.395580 0.000000 0.000000 0.000000 
0.020584 1.006990 -0.026236 -0.113726 -9.336750 -1.334183 1.122123 -0.662958 -8.593768 0.201694 0.587606 -13.627557 48.298399 26.998167 117.938161 0.000000 0.000000 0.000000 -3.022131 0.784263 -8.863924 -1.090351 -0.302858 -9.870239 -24.905294 -19.642877 113.852244 0.000000 0.000000 0.000000 -0.795348 -0.219077 8.154542 6.020411 1.943797 -48.323539 2.179612 -0.784590 58.014525 1.913172 4.735331 -93.423472 0.000000 0.000000 0.000000 31.751494 5.518805 -5.418970 22.030509 43.897518 14.941498 41.721148 -1.099833 -0.505091 0.000000 0.000000 0.000000 10.144781 2.995612 0.765273 51.448415 45.135846 7.660567 34.714664 -35.629535 -11.669617 0.000000 0.000000 0.000000 
0.020189 1.007207 -0.027660 -0.586430 -10.545655 -1.048806 1.874088 -0.604835 -8.862477 -0.006258 0.607528 -13.703754 49.873589 27.231957 119.011403 0.000000 0.000000 0.000000 -2.557436 0.836749 -9.177106 -0.692016 -0.301182 -10.198829 -24.560815 -19.203237 113.480520 0.000000 0.000000 0.000000 -0.828431 -0.205077 7.905948 6.886048 2.028065 -48.086913 2.637476 0.087930 58.050636 1.080384 4.701959 -93.479739 0.000000 0.000000 0.000000 33.170424 5.185425 -5.472649 23.575578 43.639153 15.764231 33.070121 -2.670162 -0.602217 0.000000 0.000000 0.000000 10.177595 4.142746 1.281450 50.390540 44.659206 7.174068 36.251212 -35.546604 -12.203191 0.000000 0.000000 0.000000 
0.019666 1.007407 -0.029287 -0.863226 -10.881197 -0.832098 2.633057 -0.552517 -9.257265 -0.211186 0.615208 -13.742896 49.074841 26.968279 120.263800 0.000000 0.000000 0.000000 -2.290287 0.836303 -9.042402 -0.449020 -0.316347 -11.214789 -24.884889 -19.024795 113.988630 0.000000 0.000000 0.000000 -0.742206 -0.207051 7.714067 7.177451 2.082118 -48.236687 2.975595 0.674919 58.364295 1.084685 4.651600 -94.037757 0.000000 0.000000 0.000000 34.248610 4.486176 -5.438703 25.372696 43.497197 16.623980 25.811249 -3.060254 -0.434996 0.000000 0.000000 0.000000 10.620756 4.653250 1.568222 50.199196 43.892359 6.792330 35.230396 -35.856806 -11.868672 0.000000 0.000000 0.000000 
